<svg width="31" height="32" viewBox="0 0 31 32" fill="none" xmlns="http://www.w3.org/2000/svg">
<path d="M26.5827 1.5C26.5827 1.22386 26.3588 1 26.0827 1H4.8495C4.57336 1 4.3495 1.22386 4.3495 1.5V2.375C4.3495 2.65114 4.57336 2.875 4.8495 2.875H5.04001C5.33299 2.875 5.56423 3.12464 5.54513 3.417C5.47606 4.47417 5.36092 6.85196 5.58468 8.5C5.98637 11.4585 7.82523 14.6061 9.80975 17.25C11.3479 19.2992 12.9735 21.0458 14.0853 22.1673C14.1786 22.2615 14.2309 22.3881 14.2309 22.5207V24.25C14.2309 24.5261 14.0071 24.75 13.7309 24.75H11.3518C11.2182 24.75 11.0901 24.8035 10.9962 24.8986L10.0521 25.8539C9.95966 25.9475 9.9078 26.0738 9.9078 26.2054V28C9.9078 28.2761 9.68394 28.5 9.4078 28.5H8.55503C8.27889 28.5 8.05503 28.7239 8.05503 29V30.5C8.05503 30.7761 8.27889 31 8.55503 31H22.3771C22.6533 31 22.8771 30.7761 22.8771 30.5V29C22.8771 28.7239 22.6533 28.5 22.3771 28.5H21.5244C21.2482 28.5 21.0244 28.2761 21.0244 28V26.2054C21.0244 26.0738 20.9725 25.9475 20.88 25.8539L19.936 24.8986C19.8421 24.8035 19.714 24.75 19.5803 24.75H17.2013C16.9251 24.75 16.7013 24.5261 16.7013 24.25V22.5207C16.7013 22.3881 16.7536 22.2615 16.8469 22.1673C17.9587 21.0458 19.5843 19.2992 21.1224 17.25C23.1069 14.6061 24.9458 11.4585 25.3475 8.5C25.5713 6.85196 25.4561 4.47417 25.387 3.417C25.3679 3.12464 25.5992 2.875 25.8922 2.875H26.0827C26.3588 2.875 26.5827 2.65114 26.5827 2.375V1.5Z" fill="#9672FF"/>
<path d="M25.3475 8.5C25.5713 6.85196 25.4561 4.47417 25.387 3.417C25.3679 3.12464 25.5992 2.875 25.8922 2.875H26.0827C26.3588 2.875 26.5827 2.65114 26.5827 2.375V1.5C26.5827 1.22386 26.3588 1 26.0827 1H4.8495C4.57336 1 4.3495 1.22386 4.3495 1.5V2.375C4.3495 2.65114 4.57336 2.875 4.8495 2.875H5.04001C5.33299 2.875 5.56423 3.12464 5.54513 3.417C5.47606 4.47417 5.36092 6.85196 5.58468 8.5M25.3475 8.5C26.1709 7.66667 27.9617 6.36656 29.0529 7.25C32.1409 9.75 27.2002 16.625 21.1224 17.25M25.3475 8.5C24.9458 11.4585 23.1069 14.6061 21.1224 17.25M5.58468 8.5C4.76123 7.66667 3.7318 6 1.87915 7.25C-0.69014 8.98352 2.49665 16 9.80975 17.25M5.58468 8.5C5.98637 11.4585 7.82523 14.6061 9.80975 17.25M9.80975 17.25C11.3479 19.2992 12.9735 21.0458 14.0853 22.1673C14.1786 22.2615 14.2309 22.3881 14.2309 22.5207V24.25C14.2309 24.5261 14.0071 24.75 13.7309 24.75H11.3518C11.2182 24.75 11.0901 24.8035 10.9962 24.8986L10.0521 25.8539C9.95966 25.9475 9.9078 26.0738 9.9078 26.2054V28C9.9078 28.2761 9.68394 28.5 9.4078 28.5H8.55503C8.27889 28.5 8.05503 28.7239 8.05503 29V30.5C8.05503 30.7761 8.27889 31 8.55503 31H22.3771C22.6533 31 22.8771 30.7761 22.8771 30.5V29C22.8771 28.7239 22.6533 28.5 22.3771 28.5H21.5244C21.2482 28.5 21.0244 28.2761 21.0244 28V26.2054C21.0244 26.0738 20.9725 25.9475 20.88 25.8539L19.936 24.8986C19.8421 24.8035 19.714 24.75 19.5803 24.75H17.2013C16.9251 24.75 16.7013 24.5261 16.7013 24.25V22.5207C16.7013 22.3881 16.7536 22.2615 16.8469 22.1673C17.9587 21.0458 19.5843 19.2992 21.1224 17.25" stroke="#9672FF"/>
</svg>
