<svg width="30" height="31" viewBox="0 0 30 31" fill="none" xmlns="http://www.w3.org/2000/svg">
<path d="M0.0510522 19.0079C0.101513 19.1984 0.189206 19.3771 0.309069 19.5335C0.428932 19.69 0.578594 19.8212 0.749418 19.9195L3.61797 21.5776V24.8802C3.61797 25.2785 3.7762 25.6605 4.05786 25.9421C4.33951 26.2238 4.72151 26.382 5.11983 26.382H8.42243L10.0805 29.2506C10.2134 29.4779 10.4033 29.6666 10.6313 29.7983C10.8594 29.93 11.1178 30 11.3811 30.0015C11.6424 30.0015 11.9022 29.9324 12.1335 29.7988L14.9991 28.1422L17.8676 29.8003C18.2125 29.9991 18.6221 30.0531 19.0067 29.9503C19.3913 29.8476 19.7195 29.5965 19.9192 29.2521L21.5757 26.3835H24.8783C25.2766 26.3835 25.6586 26.2253 25.9403 25.9436C26.2219 25.662 26.3802 25.28 26.3802 24.8817V21.5791L29.2487 19.921C29.4196 19.8223 29.5693 19.6908 29.6894 19.5342C29.8094 19.3775 29.8974 19.1988 29.9483 19.0081C29.9992 18.8174 30.0121 18.6186 29.9861 18.423C29.9601 18.2273 29.8958 18.0387 29.7969 17.868L28.1404 15.0009L29.7984 12.1354C29.9977 11.7906 30.0519 11.3808 29.9491 10.9961C29.8463 10.6114 29.5949 10.2832 29.2502 10.0838L26.3817 8.42577V5.12168C26.3817 4.72336 26.2234 4.34136 25.9418 4.0597C25.6601 3.77805 25.2781 3.61982 24.8798 3.61982H21.5772L19.9207 0.752767C19.7206 0.408715 19.3931 0.157287 19.009 0.0528996C18.8186 0.0012595 18.6197 -0.0120561 18.424 0.0137245C18.2284 0.0395051 18.0397 0.103869 17.8691 0.203086L14.9991 1.85964L12.132 0.201584C11.7873 0.00230864 11.3775 -0.0518887 10.9928 0.0509084C10.608 0.153706 10.2799 0.405081 10.0805 0.749763L8.42243 3.61832H5.11983C4.72151 3.61832 4.33951 3.77655 4.05786 4.0582C3.7762 4.33986 3.61797 4.72186 3.61797 5.12018V8.42277L0.749418 10.0808C0.404835 10.2811 0.153665 10.6098 0.0509193 10.9949C-0.0518266 11.3799 0.00222586 11.7901 0.201239 12.1354L1.85929 15.0009L0.201239 17.8665C0.00297381 18.2124 -0.0509869 18.6225 0.0510522 19.0079ZM14.9991 16.5028C9.7726 16.5028 8.99163 13.6808 8.99163 11.9972C8.99163 10.0643 10.537 8.11789 13.4972 7.61927V6.00778H16.5009V7.67334C19.1052 8.2891 20.1054 10.4563 20.1054 11.9972H18.6035L17.1017 12.0242C17.0807 11.4535 16.7788 10.4953 14.9991 10.4953C13.0482 10.4953 11.9954 11.2688 11.9954 11.9972C11.9954 12.5589 11.9954 13.4991 14.9991 13.4991C20.2256 13.4991 21.0065 16.3211 21.0065 18.0046C21.0065 19.9375 19.4611 21.884 16.5009 22.3826V24.0121H13.4972V22.3901C9.98436 21.8389 8.99163 19.3818 8.99163 18.0046H11.9954C12.0119 18.2194 12.2341 19.5065 14.9991 19.5065C17.0716 19.5065 18.0028 18.6279 18.0028 18.0046C18.0028 17.5165 18.0028 16.5028 14.9991 16.5028Z" fill="#9672FF"/>
</svg>
