<svg width="22" height="22" viewBox="0 0 22 22" fill="none" xmlns="http://www.w3.org/2000/svg">
<path opacity="0.4" d="M20.9579 13.5609L19.1274 12.5039C19.3122 11.5069 19.3122 10.4845 19.1274 9.4875L20.9579 8.43047C21.0593 8.37152 21.1379 8.28003 21.1807 8.17083C21.2236 8.06163 21.2284 7.94114 21.1942 7.82891C20.7211 6.31675 19.9184 4.92843 18.8438 3.76406C18.7647 3.67792 18.6587 3.62121 18.5431 3.60325C18.4276 3.5853 18.3094 3.60715 18.2079 3.66523L16.3774 4.72227C15.6085 4.06065 14.7224 3.54907 13.7649 3.21406V1.1043C13.7649 0.98736 13.7251 0.873909 13.6521 0.782559C13.5791 0.691209 13.4772 0.627386 13.3631 0.601562C11.818 0.257812 10.2161 0.257812 8.67095 0.601562C8.55651 0.626963 8.45413 0.690604 8.38071 0.781994C8.30728 0.873383 8.26719 0.987065 8.26705 1.1043V3.21836C7.31198 3.55855 6.42674 4.0696 5.65455 4.72656L3.82623 3.66953C3.72499 3.6105 3.60652 3.58811 3.49072 3.6061C3.37492 3.6241 3.26884 3.68139 3.19029 3.76836C2.11394 4.93141 1.31094 6.32015 0.839898 7.8332C0.804822 7.94539 0.809132 8.0662 0.852113 8.17561C0.895094 8.28501 0.974166 8.37645 1.07623 8.43477L2.9067 9.4918C2.72193 10.4888 2.72193 11.5112 2.9067 12.5082L1.07623 13.5652C0.974618 13.624 0.895932 13.7155 0.85301 13.8247C0.810089 13.934 0.805467 14.0546 0.839898 14.1668C1.31271 15.6791 2.11551 17.0674 3.19029 18.2316C3.26937 18.3178 3.37539 18.3745 3.49095 18.3924C3.6065 18.4104 3.72473 18.3886 3.82623 18.3305L5.65669 17.2734C6.42542 17.9353 7.31162 18.4469 8.2692 18.7816V20.8957C8.26934 21.0129 8.30943 21.1266 8.38286 21.218C8.45628 21.3094 8.55865 21.373 8.6731 21.3984C10.2183 21.7422 11.8201 21.7422 13.3653 21.3984C13.4797 21.373 13.5821 21.3094 13.6555 21.218C13.729 21.1266 13.769 21.0129 13.7692 20.8957V18.7816C14.7242 18.4414 15.6094 17.9303 16.3817 17.2734L18.2122 18.3305C18.3134 18.3894 18.4319 18.4118 18.5476 18.3938C18.6634 18.3758 18.7695 18.3185 18.8481 18.2316C19.9246 17.0687 20.7276 15.6799 21.1985 14.1668C21.2314 14.0534 21.2256 13.9323 21.1821 13.8226C21.1385 13.7129 21.0596 13.6208 20.9579 13.5609ZM11.0149 15.1164C10.1999 15.1164 9.4032 14.8747 8.72556 14.4219C8.04791 13.9692 7.51975 13.3256 7.20786 12.5726C6.89598 11.8197 6.81437 10.9911 6.97337 10.1918C7.13237 9.39246 7.52483 8.65822 8.10112 8.08193C8.67741 7.50564 9.41165 7.11318 10.211 6.95418C11.0103 6.79518 11.8389 6.87678 12.5918 7.18867C13.3448 7.50056 13.9883 8.02872 14.4411 8.70636C14.8939 9.38401 15.1356 10.1807 15.1356 10.9957C15.1357 11.5369 15.0291 12.0727 14.822 12.5727C14.615 13.0727 14.3115 13.527 13.9288 13.9096C13.5461 14.2923 13.0919 14.5958 12.5919 14.8029C12.0919 15.0099 11.5561 15.1165 11.0149 15.1164Z" fill="#A8A9AB"/>
<path d="M11.0152 13.7414C10.4722 13.7414 9.94134 13.5804 9.48981 13.2787C9.03828 12.977 8.68635 12.5482 8.47854 12.0464C8.27072 11.5447 8.21635 10.9927 8.32229 10.46C8.42823 9.92743 8.68974 9.43819 9.07373 9.0542C9.45773 8.67021 9.94696 8.4087 10.4796 8.30276C11.0122 8.19682 11.5643 8.25119 12.066 8.45901C12.5677 8.66682 12.9965 9.01875 13.2982 9.47027C13.5999 9.9218 13.7609 10.4527 13.7609 10.9957C13.7609 11.3563 13.6899 11.7133 13.5519 12.0464C13.414 12.3796 13.2117 12.6822 12.9567 12.9372C12.7018 13.1922 12.3991 13.3944 12.066 13.5324C11.7329 13.6704 11.3758 13.7414 11.0152 13.7414Z" fill="#A8A9AB"/>
</svg>
