<svg width="16" height="15" viewBox="0 0 16 15" fill="none" xmlns="http://www.w3.org/2000/svg">
<g clip-path="url(#clip0_296_10052)">
<path opacity="0.4" d="M2.79722 5.33325H0L6.075 12.4166C6.0877 12.4337 6.10647 12.4453 6.12745 12.449C6.14843 12.4527 6.17003 12.4482 6.18781 12.4365C6.20559 12.4247 6.2182 12.4066 6.22305 12.3859C6.2279 12.3651 6.22462 12.3433 6.21389 12.3249L2.79722 5.33325ZM13.2028 5.33325L9.78611 12.3249C9.77789 12.3432 9.7765 12.3637 9.7822 12.3829C9.78791 12.4021 9.80031 12.4186 9.81716 12.4294C9.83401 12.4401 9.85417 12.4445 9.87397 12.4416C9.89377 12.4388 9.91188 12.4289 9.925 12.4138L16 5.33325H13.2028ZM4.11667 5.33325L7.925 14.1721C7.93148 14.187 7.94216 14.1997 7.95573 14.2085C7.9693 14.2174 7.98517 14.2222 8.00139 14.2222C8.01761 14.2222 8.03348 14.2174 8.04705 14.2085C8.06061 14.1997 8.07129 14.187 8.07778 14.1721L11.8833 5.33325H4.11667Z" fill="white"/>
<path d="M2.51389 0L0 4.44444H2.80833L4.73056 0H2.51389ZM13.4861 0H11.2694L13.1917 4.44444H16L13.4861 0ZM6.06944 0L4.14722 4.44444H11.8528L9.93056 0H6.06944Z" fill="white"/>
</g>
<defs>
<clipPath id="clip0_296_10052">
<rect width="16" height="14.2222" fill="white"/>
</clipPath>
</defs>
</svg>
