<svg width="1406" height="511" viewBox="0 0 1406 511" fill="none" xmlns="http://www.w3.org/2000/svg">
<path d="M671.902 456.497H708.516C708.516 486.158 686.733 510.295 659.959 510.295H627.748C600.974 510.295 579.18 486.158 579.18 456.497C579.18 440.914 585.228 426.901 594.817 417.072C594.806 417.061 594.806 417.061 594.806 417.061C581.687 403.026 573.568 383.684 573.568 362.38C573.568 331.019 591.2 303.93 616.459 291.899L601.192 279.88L623.836 251.112L675.956 292.139H675.967C675.988 292.139 675.977 292.15 675.988 292.161L676.032 292.194C700.92 304.398 718.257 331.248 718.257 362.37C718.257 405.02 685.796 439.683 645.946 439.683C643.69 439.683 641.489 439.563 639.298 439.313C639.266 439.302 639.233 439.302 639.189 439.291H627.748C621.384 439.291 615.805 447.322 615.805 456.475C615.805 465.629 621.384 473.66 627.748 473.66H659.959C666.323 473.681 671.902 465.661 671.902 456.497ZM610.193 362.38C610.193 383.041 623.77 400.106 641.249 402.699H650.642C668.066 400.106 681.644 383.041 681.644 362.38C681.644 339.987 665.593 321.735 645.946 321.735C626.244 321.746 610.193 339.987 610.193 362.38Z" fill="white"/>
<path d="M868.221 362.381C868.221 362.403 868.221 437.897 868.221 437.919H831.608V429.572C821.114 436.044 808.909 439.706 795.92 439.706C756.016 439.706 723.543 405.043 723.543 362.392C723.543 319.796 756.005 285.133 795.92 285.133C808.909 285.133 821.114 288.795 831.608 295.267V285.994H868.221V362.338C868.221 362.36 868.221 362.36 868.221 362.381ZM831.608 362.316C831.575 339.956 815.545 321.736 795.92 321.736C776.208 321.736 760.157 339.977 760.157 362.381C760.157 384.84 776.208 403.081 795.92 403.081C815.545 403.081 831.586 384.873 831.608 362.447V362.316Z" fill="white"/>
<path d="M1130.49 356.79V437.918H1093.87V356.79C1093.87 338.102 1078.66 322.901 1059.97 322.901C1041.28 322.901 1026.08 338.113 1026.08 356.79V437.918H989.47V356.79C989.47 338.102 974.257 322.901 955.569 322.901C936.881 322.901 921.68 338.113 921.68 356.79V437.918H885.066V285.993H921.68V295.005C931.738 289.458 943.299 286.287 955.569 286.287C976.273 286.287 994.863 295.31 1007.78 309.563C1020.68 295.31 1039.27 286.287 1059.97 286.287C1098.85 286.277 1130.49 317.91 1130.49 356.79Z" fill="white"/>
<path d="M1278.88 380.754L1179.84 380.449C1186.01 392.413 1197.84 401.501 1211.45 403.212C1231.35 405.718 1246.23 390.637 1247.88 388.872L1274.54 413.946C1270.15 418.642 1248.18 440.12 1216.02 440.12C1213.03 440.12 1209.98 439.935 1206.8 439.575C1168.66 434.693 1138.76 400.826 1138.76 362.382C1138.76 341.209 1147.67 319.666 1162.62 304.77C1175.5 292.009 1191.98 285.297 1209.25 285.123C1227.5 285.242 1244.89 292.936 1258.19 306.786C1272.46 321.616 1280.22 342.113 1279.48 363.046L1278.88 380.754ZM1239.58 344.02C1237.68 339.629 1235.07 335.597 1231.76 332.186C1225.36 325.474 1217.3 321.812 1209 321.747C1199.66 321.812 1192.59 326.629 1188.44 330.781C1184.78 334.377 1181.72 338.899 1179.52 343.835L1239.58 344.02Z" fill="white"/>
<path d="M1398.04 416.123C1389.59 429.712 1373.51 438.473 1353.92 440.184C1351.66 440.38 1349.42 440.478 1347.2 440.478C1328.14 440.478 1310.61 433.351 1299.39 420.798C1290.31 410.642 1285.4 397.065 1285.18 381.537L1321.79 381.024C1321.86 385.612 1322.75 392.009 1326.7 396.4C1331.43 401.696 1340.87 404.573 1350.75 403.701C1359.4 402.949 1365.21 399.593 1366.94 396.803C1367.93 395.212 1369.47 390.821 1367.88 387.443C1365.6 382.605 1353.87 380.175 1343.54 378.028C1325.72 374.334 1303.52 369.735 1293.7 348.192C1286.72 332.871 1290.26 316.885 1295.9 307.035C1304.05 292.781 1320.38 283.214 1339.58 281.427C1359.98 279.553 1379.25 286.701 1391.11 300.627C1398.67 309.508 1402.92 321.222 1403.38 334.506L1366.79 335.791C1366.67 332.348 1365.95 327.564 1363.23 324.372C1359.22 319.664 1351.29 317.103 1342.98 317.899C1335.97 318.553 1329.84 321.495 1327.69 325.232C1327.08 326.289 1325.65 330.005 1327.03 333.024C1329.15 337.666 1340.74 340.074 1350.99 342.199C1368.78 345.882 1390.92 350.47 1401 371.849C1408.8 388.423 1404.28 406.066 1398.04 416.123Z" fill="white"/>
<path fill-rule="evenodd" clip-rule="evenodd" d="M143.848 449.149L114.776 398.655C143.088 348.92 172.159 299.189 200.467 249.454L172.155 199.72C143.084 249.454 114.772 299.185 85.6875 348.92L57.3756 299.185C85.6875 248.69 114.759 199.72 143.067 149.213L114.755 100.242C85.6834 149.977 57.3715 199.707 29.0637 249.442L0 199.707L114.776 0L257.863 249.442L143.848 449.149V449.149Z" fill="white"/>
<path fill-rule="evenodd" clip-rule="evenodd" d="M545.567 250.202H315.251L229.56 399.415H401.719L373.407 449.149H200.484L172.172 498.884H401.715L488.183 349.684H315.259L344.331 299.949H516.491L545.563 250.206L545.567 250.202Z" fill="white"/>
<path fill-rule="evenodd" clip-rule="evenodd" d="M459.087 0.759766L573.862 200.467H516.478C488.167 150.732 459.095 100.225 430.787 50.4945H373.403C401.715 100.229 430.023 150.736 459.095 200.467H286.935L172.164 0.759766H459.091H459.087ZM257.855 50.4945L315.239 150.736H372.623L315.239 50.4945H257.855V50.4945Z" fill="white"/>
</svg>
