<svg width="16" height="16" viewBox="0 0 16 16" fill="none" xmlns="http://www.w3.org/2000/svg">
<g clip-path="url(#clip0_296_10043)">
<path opacity="0.4" d="M7 10V15H2C1.73478 15 1.48043 14.8946 1.29289 14.7071C1.10536 14.5196 1 14.2652 1 14V10H7ZM7 5H1C0.734784 5 0.48043 5.10536 0.292893 5.29289C0.105357 5.48043 0 5.73478 0 6L0 8.5C0 8.63261 0.0526784 8.75979 0.146447 8.85355C0.240215 8.94732 0.367392 9 0.5 9H7V5ZM15 5H9V9H15.5C15.6326 9 15.7598 8.94732 15.8536 8.85355C15.9473 8.75979 16 8.63261 16 8.5V6C16 5.73478 15.8946 5.48043 15.7071 5.29289C15.5196 5.10536 15.2652 5 15 5ZM9 15H14C14.2652 15 14.5196 14.8946 14.7071 14.7071C14.8946 14.5196 15 14.2652 15 14V10H9V15Z" fill="white"/>
<path d="M7 15H9V10H7V15ZM11.2356 1C9.92875 1 9.08375 1.66563 8 3.13438C6.91625 1.66563 6.07125 1 4.76438 1C3.24094 1 2 2.23438 2 3.75C2.00227 4.18629 2.11116 4.61541 2.31719 5H4.76125C4.42973 5 4.11179 4.8683 3.87737 4.63388C3.64295 4.39946 3.51125 4.08152 3.51125 3.75C3.51125 3.41848 3.64295 3.10054 3.87737 2.86612C4.11179 2.6317 4.42973 2.5 4.76125 2.5C5.38625 2.5 5.84812 2.60313 7.46594 5H7V9H9V5H8.53125C10.1459 2.60938 10.5938 2.5 11.2359 2.5C11.5675 2.5 11.8854 2.6317 12.1198 2.86612C12.3542 3.10054 12.4859 3.41848 12.4859 3.75C12.4859 4.08152 12.3542 4.39946 12.1198 4.63388C11.8854 4.8683 11.5675 5 11.2359 5H13.6831C13.8876 4.61484 13.9963 4.18607 14 3.75C14 2.23438 12.7591 1 11.2356 1Z" fill="white"/>
</g>
<defs>
<clipPath id="clip0_296_10043">
<rect width="16" height="16" fill="white"/>
</clipPath>
</defs>
</svg>
